<svg width="91" height="50" viewBox="0 0 91 50" fill="none" xmlns="http://www.w3.org/2000/svg">
<path d="M9.39062 26.2969V24.9531C9.39062 21.224 10.2708 18.4427 12.0312 16.6094C13.7917 14.7656 16.0677 13.8438 18.8594 13.8438C21.5573 13.8438 23.6719 14.5469 25.2031 15.9531C26.7344 17.349 27.5 19.224 27.5 21.5781V22.2031H23.3281V21.4062C23.3281 20.0417 22.9583 18.9792 22.2188 18.2188C21.4792 17.4479 20.3646 17.0625 18.875 17.0625C17.3229 17.0625 16.0833 17.6406 15.1562 18.7969C14.2396 19.9531 13.7812 21.7917 13.7812 24.3125V26.9375C13.7812 29.3438 14.2396 31.1562 15.1562 32.375C16.0833 33.5938 17.3385 34.2031 18.9219 34.2031C20.349 34.2031 21.4219 33.8125 22.1406 33.0312C22.8698 32.2396 23.2656 31.1406 23.3281 29.7344V29.0625H27.5L27.4844 29.8125C27.4115 32.0521 26.6302 33.875 25.1406 35.2812C23.6615 36.6875 21.5625 37.3906 18.8438 37.3906C15.9896 37.3906 13.6979 36.4635 11.9688 34.6094C10.25 32.7552 9.39062 29.9844 9.39062 26.2969ZM32.1938 37V14.25H46.5844V17.5781H36.3344V23.75H45.1625V26.9062H36.3344V33.7188H46.7719V37H32.1938ZM51.2313 37V14.25H55.45V33.6719H65.075V37H51.2313ZM54.7781 46.125C55.0906 45 55.351 43.9948 55.5594 43.1094C55.7677 42.224 56.0229 41.0573 56.325 39.6094L60.5438 39.5781L58.3719 46.1719L54.7781 46.125ZM68.4406 30.75V30.0625H72.5656V30.6094C72.5656 31.8281 72.9302 32.7448 73.6594 33.3594C74.399 33.9635 75.4302 34.2656 76.7531 34.2656C78.0656 34.2656 79.0708 33.974 79.7687 33.3906C80.4771 32.8073 80.8312 32.0312 80.8312 31.0625C80.8312 30.1458 80.4875 29.4219 79.8 28.8906C79.1125 28.349 77.7375 27.7708 75.675 27.1562C73.3312 26.4583 71.5969 25.5885 70.4719 24.5469C69.3573 23.4948 68.8 22.0573 68.8 20.2344C68.8 18.3177 69.5031 16.776 70.9094 15.6094C72.3156 14.4323 74.2167 13.8438 76.6125 13.8438C78.9979 13.8438 80.9094 14.4271 82.3469 15.5938C83.7948 16.7604 84.5187 18.3438 84.5187 20.3438V20.9062H80.4562V20.4844C80.4562 19.4219 80.1333 18.5833 79.4875 17.9688C78.8521 17.3438 77.9094 17.0312 76.6594 17.0312C75.3781 17.0312 74.4406 17.2969 73.8469 17.8281C73.2531 18.349 72.9562 19.0573 72.9562 19.9531C72.9562 20.7865 73.2896 21.4479 73.9562 21.9375C74.6333 22.4167 76.0187 22.9688 78.1125 23.5938C80.4146 24.2708 82.1333 25.1562 83.2687 26.25C84.4042 27.3333 84.9719 28.8438 84.9719 30.7812C84.9719 32.8229 84.2271 34.4375 82.7375 35.625C81.2479 36.8125 79.2635 37.4062 76.7844 37.4062C74.3156 37.4062 72.3052 36.8385 70.7531 35.7031C69.2115 34.5573 68.4406 32.9062 68.4406 30.75ZM75.2062 12.2031L71.0031 6.67188H74.2219L76.5812 9.39062L78.8781 6.6875H82.0656L77.9719 12.2031H75.2062Z" fill="white"/>
<rect x="2" width="85" height="4" fill="white"/>
<rect y="46" width="87" height="4" fill="white"/>
<rect width="4" height="46" fill="white"/>
</svg>
