<svg width="124" height="71" viewBox="0 0 124 71" fill="none" xmlns="http://www.w3.org/2000/svg">
<rect x="3" y="3" width="118" height="65" rx="32.5" fill="#0D1A40" stroke="white" stroke-width="5" stroke-linejoin="round"/>
<circle cx="36.5" cy="35.5" r="26.5" fill="white"/>
<path d="M36.006 25.4161C30.1565 25.4161 25.422 30.1564 25.422 36.0002C25.422 41.8439 30.1623 46.5842 36.006 46.5842C41.8428 46.5842 46.5833 41.8439 46.5833 36.0002C46.5836 30.1569 41.843 25.4161 36.006 25.4161Z" fill="black"/>
<path d="M36.0001 22.1658C36.6259 22.1658 37.1351 21.6562 37.1351 21.0308V17.135C37.1351 16.5093 36.6256 16 36.0001 16C35.3744 16 34.8651 16.5096 34.8651 17.135V21.0304C34.8648 21.6562 35.3743 22.1658 36.0001 22.1658Z" fill="black"/>
<path d="M36.0001 49.8345C35.3744 49.8345 34.8651 50.3441 34.8651 50.9696V54.865C34.8651 55.4907 35.3747 56 36.0001 56C36.6259 56 37.1351 55.4904 37.1351 54.865V50.9696C37.1351 50.3438 36.6256 49.8345 36.0001 49.8345Z" fill="black"/>
<path d="M47.3893 26.2163L50.1432 23.4624C50.5881 23.0175 50.5881 22.3013 50.1432 21.8564C49.6983 21.4115 48.9821 21.4115 48.5372 21.8564L45.7833 24.6103C45.3385 25.0552 45.3385 25.7713 45.7833 26.2163C46.2286 26.6611 46.9444 26.6611 47.3893 26.2163Z" fill="black"/>
<path d="M24.6101 45.7841L21.8562 48.5379C21.4113 48.9828 21.4113 49.699 21.8562 50.1439C22.3011 50.5888 23.0173 50.5888 23.4622 50.1439L26.2161 47.3901C26.6609 46.9452 26.6609 46.229 26.2161 45.7841C25.7708 45.3392 25.055 45.3392 24.6101 45.7841Z" fill="black"/>
<path d="M54.865 34.8646H50.9696C50.3438 34.8646 49.8345 35.3742 49.8345 35.9997C49.8345 36.6254 50.3441 37.1347 50.9696 37.1347H54.865C55.4907 37.1347 56 36.6251 56 35.9997C56 35.3742 55.4908 34.8646 54.865 34.8646Z" fill="black"/>
<path d="M22.1658 36.0002C22.1658 35.3744 21.6562 34.8651 21.0308 34.8651L17.135 34.8648C16.5093 34.8648 16 35.3744 16 35.9998C16 36.6256 16.5096 37.1349 17.135 37.1349H21.0304C21.6562 37.1352 22.1658 36.6256 22.1658 36.0002Z" fill="black"/>
<path d="M47.3893 45.7841C46.9444 45.3392 46.2283 45.3392 45.7834 45.7841C45.3384 46.229 45.3385 46.9451 45.7834 47.3901L48.5372 50.1439C48.9821 50.5888 49.6983 50.5888 50.1432 50.1439C50.5881 49.699 50.5881 48.9829 50.1432 48.5379L47.3893 45.7841Z" fill="black"/>
<path d="M24.6101 26.2163C25.055 26.6611 25.7711 26.6611 26.2161 26.2163C26.661 25.7714 26.661 25.0552 26.2161 24.6103L23.4622 21.8564C23.0173 21.4115 22.3012 21.4115 21.8562 21.8564C21.4113 22.3013 21.4113 23.0175 21.8562 23.4624L24.6101 26.2163Z" fill="black"/>
</svg>
