<svg width="126" height="71" viewBox="0 0 126 71" fill="none" xmlns="http://www.w3.org/2000/svg">
<rect x="3" y="3" width="120" height="65" rx="32.5" fill="#0D1A40" stroke="white" stroke-width="5" stroke-linejoin="round"/>
<circle cx="90.5" cy="35.5" r="26.5" fill="white"/>
<path d="M107.628 34.942C107.402 34.8483 107.143 34.9001 106.97 35.0729C103.817 38.2263 100.303 39.9894 96.8101 40.1723C93.84 40.3753 90.927 39.2835 88.8217 37.1785C86.7167 35.0731 85.6249 32.1605 85.8279 29.1901C86.0106 25.6966 87.774 22.1833 90.9271 19.0301C91.0999 18.8573 91.1514 18.598 91.0579 18.3725C90.9645 18.147 90.7447 18 90.5007 18C88.1112 18.0039 85.7477 18.4953 83.5546 19.4439C81.3619 20.3928 79.3852 21.7789 77.7464 23.5175C74.6993 26.7604 73.0021 31.0424 73 35.492C72.9979 39.942 74.691 44.2255 77.7351 47.4711C80.7788 50.717 84.945 52.6813 89.3853 52.9646C89.7632 52.9882 90.1392 52.9999 90.5139 52.9996V52.9999C94.9647 53.0131 99.2504 51.3138 102.482 48.2538C104.221 46.6147 105.607 44.6384 106.555 42.4456C107.504 40.2525 107.996 37.889 108 35.4998C108 35.2558 107.853 35.0357 107.627 34.9423L107.628 34.942Z" fill="black"/>
</svg>
